<svg id="Capa_1" enable-background="new 0 0 512 512" height="512" viewBox="0 0 512 512" width="512" xmlns="http://www.w3.org/2000/svg"><g><path d="m366.791 138.637-10.893-37.314c-2.457-8.418-10.175-14.204-18.944-14.204h-141.91c-8.769 0-16.486 5.787-18.944 14.204l-10.82 37.066c-1.46 5.002-5.595 8.768-10.711 9.756l-127.089 24.533c-11.6 2.239-19.98 12.392-19.98 24.206v214.481c0 13.615 11.037 24.653 24.653 24.653h447.694c13.615 0 24.653-11.037 24.653-24.653v-215.041c0-11.561-8.033-21.568-19.32-24.069l-108.05-23.94c-4.954-1.098-8.917-4.807-10.339-9.678z" fill="#818181"/><g fill="#595959"><path d="m334.736 95.523 10.893 37.961c1.422 4.956 5.385 8.729 10.339 9.846l18.853 4.249c-3.854-1.596-6.837-4.857-8.03-8.943l-10.893-37.314c-2.457-8.418-10.175-14.204-18.944-14.204h-7.052c2.214 2.302 3.903 5.16 4.834 8.405z"/><path d="m485.18 172.254-21.162-4.57c11.287 2.544 19.32 12.725 19.32 24.486v218.767c0 13.851-11.037 25.08-24.653 25.08h21.162c13.615 0 24.653-11.037 24.653-24.653v-215.04c0-11.561-8.033-21.569-19.32-24.07z"/></g><path d="m66.028 436.017h-33.875c-13.615 0-24.653-11.037-24.653-24.653v-214.48c0-11.814 8.381-21.967 19.98-24.206l33.096-6.389c17.747-3.426 34.22 10.171 34.22 28.246v212.715c0 15.888-12.88 28.767-28.768 28.767z" fill="#595959"/><path d="m60.575 166.289-4.511.871c11.375 3.708 19.883 14.385 19.883 27.375v212.715c0 15.888-12.88 28.767-28.767 28.767h18.848c15.888 0 28.767-12.88 28.767-28.767v-212.715c.001-18.075-16.472-31.672-34.22-28.246z" fill="#454545"/><circle cx="262.814" cy="295.292" fill="#595959" r="139.976"/><circle cx="262.814" cy="295.292" fill="#f1f1f4" r="109.218"/><path d="m262.814 186.073c-3.339 0-6.641.158-9.904.452 55.677 5.006 99.314 51.786 99.314 108.767 0 56.98-43.637 103.761-99.314 108.767 3.263.293 6.565.452 9.904.452 60.32 0 109.218-48.899 109.218-109.218 0-60.321-48.898-109.22-109.218-109.22z" fill="#dfdde2"/><circle cx="262.814" cy="295.292" fill="#b1e4f9" r="75.52"/><path d="m262.814 219.772c-3.631 0-7.196.272-10.69.767 36.644 5.195 64.83 36.675 64.83 74.753s-28.186 69.558-64.83 74.753c3.494.495 7.06.767 10.69.767 41.708 0 75.52-33.811 75.52-75.52s-33.811-75.52-75.52-75.52z" fill="#90d8f9"/><circle cx="440.951" cy="209.456" fill="#b1e4f9" r="15.405"/><path d="m128.793 153.12v-14.489c0-5.781-5.273-10.126-10.947-9.022l-45.241 8.805c-4.318.84-7.435 4.623-7.435 9.022v17.966z" fill="#454545"/><path d="m429.358 264.937h-29.878c2.161 9.775 3.311 19.93 3.311 30.355s-1.149 20.58-3.311 30.355h29.878c16.765 0 30.355-13.59 30.355-30.355 0-16.765-13.591-30.355-30.355-30.355z" fill="#f1f1f4"/><g><path d="m179.794 295.291c0 45.777 37.242 83.021 83.02 83.021s83.021-37.243 83.021-83.021-37.243-83.02-83.021-83.02-83.02 37.243-83.02 83.02zm83.02-68.02c37.507 0 68.021 30.514 68.021 68.02 0 37.507-30.514 68.021-68.021 68.021-37.506 0-68.02-30.514-68.02-68.021 0-37.506 30.514-68.02 68.02-68.02z"/><path d="m220.054 302.791c4.142 0 7.5-3.357 7.5-7.5 0-19.442 15.818-35.261 35.26-35.261 4.143 0 7.5-3.357 7.5-7.5s-3.357-7.5-7.5-7.5c-27.713 0-50.26 22.546-50.26 50.26 0 4.144 3.358 7.501 7.5 7.501z"/><path d="m417.015 387.079c-4.143 0-7.5 3.357-7.5 7.5s3.357 7.5 7.5 7.5h45.392c4.143 0 7.5-3.357 7.5-7.5s-3.357-7.5-7.5-7.5z"/><path d="m418.046 209.456c0 12.63 10.274 22.905 22.904 22.905s22.905-10.275 22.905-22.905-10.275-22.905-22.905-22.905-22.904 10.275-22.904 22.905zm30.81 0c0 4.359-3.546 7.905-7.905 7.905-4.358 0-7.904-3.546-7.904-7.905s3.546-7.905 7.904-7.905c4.359 0 7.905 3.546 7.905 7.905z"/><path d="m227.11 106.937c-4.142 0-7.5 3.358-7.5 7.5s3.358 7.5 7.5 7.5h77.779c4.143 0 7.5-3.358 7.5-7.5s-3.357-7.5-7.5-7.5z"/><path d="m75.816 209.066c-1.724-3.767-6.176-5.424-9.94-3.699-9.911 4.534-19.546 4.534-29.456 0-3.765-1.725-8.216-.068-9.94 3.699s-.067 8.217 3.699 9.94c6.957 3.184 13.963 4.775 20.969 4.775s14.012-1.592 20.969-4.775c3.766-1.723 5.423-6.173 3.699-9.94z"/><path d="m188.597 137.111v.253c0 4.142 3.358 7.5 7.5 7.5s7.5-3.358 7.5-7.5v-.253c0-4.142-3.358-7.5-7.5-7.5s-7.5 3.358-7.5 7.5z"/><path d="m328.403 137.111v.253c0 4.142 3.357 7.5 7.5 7.5s7.5-3.358 7.5-7.5v-.253c0-4.142-3.357-7.5-7.5-7.5s-7.5 3.358-7.5 7.5z"/><path d="m43.648 341.184v62.662c0 4.143 3.358 7.5 7.5 7.5s7.5-3.357 7.5-7.5v-62.662c0-4.143-3.358-7.5-7.5-7.5s-7.5 3.357-7.5 7.5z"/><path d="m379.533 295.291c0-27.775-9.924-54.686-27.943-75.774-17.816-20.851-42.447-34.817-69.356-39.326-4.095-.683-7.951 2.073-8.636 6.158s2.072 7.952 6.157 8.636c23.438 3.927 44.9 16.101 60.432 34.276 15.7 18.375 24.347 41.825 24.347 66.03 0 56.088-45.631 101.719-101.719 101.719-56.087 0-101.718-45.631-101.718-101.719 0-52.09 38.998-95.563 90.712-101.124 4.118-.443 7.098-4.141 6.655-8.259s-4.136-7.098-8.259-6.655c-59.352 6.381-104.109 56.267-104.109 116.038 0 64.359 52.359 116.719 116.718 116.719s116.719-52.36 116.719-116.719z"/><path d="m504.5 237.037c4.143 0 7.5-3.358 7.5-7.5v-33.213c0-15.196-10.361-28.105-25.197-31.392l-53.756-11.91v-5.443c0-4.142-3.357-7.5-7.5-7.5s-7.5 3.358-7.5 7.5v2.12l-39.294-8.706c-2.282-.506-4.106-2.214-4.762-4.458l-10.893-37.315c-3.37-11.542-14.121-19.603-26.144-19.603h-20.774v-3.636c0-4.142-3.357-7.5-7.5-7.5s-7.5 3.358-7.5 7.5v3.636h-70.361v-3.636c0-4.142-3.358-7.5-7.5-7.5s-7.5 3.358-7.5 7.5v3.636h-20.774c-12.023 0-22.774 8.061-26.144 19.603l-10.819 37.065c-.676 2.314-2.566 4.036-4.934 4.494l-16.855 3.254v-5.403c0-5.004-2.215-9.699-6.076-12.881-3.862-3.182-8.893-4.458-13.804-3.503l-45.241 8.806c-7.824 1.522-13.502 8.413-13.502 16.383v11.775l-31.612 6.102c-15.099 2.917-26.058 16.194-26.058 31.572v214.48c0 17.729 14.424 32.153 32.153 32.153h447.694c17.729 0 32.152-14.424 32.152-32.153v-151.841c0-4.142-3.357-7.5-7.5-7.5s-7.5 3.358-7.5 7.5v151.841c0 9.458-7.694 17.153-17.152 17.153h-153.818c38.684-18.43 68.128-53.222 79.332-95.371h23.997c20.873 0 37.854-16.981 37.854-37.855 0-20.873-16.981-37.854-37.854-37.854h-24.001c-16.755-63.035-74.307-109.622-142.543-109.622-81.318 0-147.476 66.158-147.476 147.476 0 58.71 34.488 109.513 84.266 133.227h-104.225c4.345-5.98 6.917-13.327 6.917-21.268v-14.298c0-4.143-3.358-7.5-7.5-7.5s-7.5 3.357-7.5 7.5v14.298c0 11.727-9.541 21.268-21.268 21.268h-33.875c-9.458 0-17.153-7.695-17.153-17.153v-214.48c0-8.204 5.846-15.287 13.901-16.842l33.096-6.389h.001c6.254-1.207 12.658.427 17.569 4.48 4.912 4.055 7.729 10.033 7.729 16.402v168.43c0 4.143 3.358 7.5 7.5 7.5s7.5-3.357 7.5-7.5v-168.43c0-10.092-4.153-19.605-11.461-26.449l39.38-7.602c.003 0 .005-.001.008-.002l25.769-4.975c7.912-1.527 14.23-7.282 16.489-15.018l10.819-37.066c1.514-5.185 6.343-8.806 11.745-8.806h141.91c5.401 0 10.23 3.622 11.745 8.806l10.893 37.314c2.189 7.5 8.288 13.209 15.916 14.899l48.501 10.746c.013.003.025.006.038.008l59.51 13.185c7.914 1.753 13.441 8.64 13.441 16.747v33.213c.001 4.143 3.358 7.501 7.501 7.501zm-75.142 35.4c12.602 0 22.854 10.253 22.854 22.854 0 12.603-10.253 22.855-22.854 22.855h-20.836c1.164-7.45 1.768-15.084 1.768-22.855 0-7.772-.609-15.404-1.773-22.854zm-299.02 22.854c0-73.047 59.429-132.476 132.476-132.476 73.048 0 132.477 59.429 132.477 132.476 0 73.048-59.429 132.477-132.477 132.477-73.047 0-132.476-59.429-132.476-132.477zm-57.668-147.855c0-.808.575-1.505 1.368-1.66l45.241-8.806c.12-.023.234-.034.342-.034.473 0 .827.2 1.056.389.281.231.616.646.616 1.305v8.298l-48.623 9.386z"/></g></g></svg>